<svg  xmlns="http://www.w3.org/2000/svg" xmlns:xlink="http://www.w3.org/1999/xlink" width="995" height="300" viewBox="0 0 1019 324"><path transform="translate(0 100)" d="M81.1,-33.4L53.9,-33.4L53.9,-59.9L81.1,-59.9L81.1,-33.4ZM57.6,-82.8L45.5,-84.1L45.5,-62.8L19.2,-62.8L10.1,-66.7L10.1,-20.9L11.5,-20.9C14.9,-20.9 18.4,-22.8 18.4,-23.7L18.4,-30.5L45.5,-30.5L45.5,8.2L47.1,8.2C50.4,8.2 53.9,6.1 53.9,5L53.9,-30.5L81.1,-30.5L81.1,-22.1L82.5,-22.1C85.2,-22.1 89.4,-23.8 89.5,-24.5L89.5,-58.4C91.5,-58.8 93.1,-59.6 93.7,-60.4L84.4,-67.6L80.1,-62.8L53.9,-62.8L53.9,-80.1C56.5,-80.5 57.3,-81.4 57.6,-82.8ZM18.4,-33.4L18.4,-59.9L45.5,-59.9L45.5,-33.4L18.4,-33.4Z"></path><path transform="translate(100 100)" d="M40.3,-83.9L39.3,-83.2C44.3,-78.8 50.1,-71.5 51.7,-65.5C60.2,-59.7 66.3,-77.6 40.3,-83.9ZM68.8,-59.1C65.7,-45.1 59.8,-32.7 50.5,-22.1C39.8,-31.5 31.8,-43.7 27.3,-59.1L68.8,-59.1ZM85.6,-69.4L79.8,-62L4.5,-62L5.4,-59.1L25.2,-59.1C29.1,-41.6 36,-27.8 45.8,-17.1C35.4,-7.2 21.6,0.9 3.9,6.9L4.6,8.3C23.8,3.6 38.8,-3.4 50.2,-12.6C60.4,-3.2 73,3.5 87.8,8.1C89.4,4 92.6,1.5 96.7,1.1L97,-0C81.4,-3.5 67.4,-9.3 56,-17.7C67.4,-28.8 74.7,-42.7 79,-59.1L93.1,-59.1C94.6,-59.1 95.5,-59.6 95.8,-60.7C92,-64.3 85.6,-69.4 85.6,-69.4Z"></path><path transform="translate(200 100)" d="M79.7,-67.1L67.6,-69.6C66.7,-63 65.4,-55.7 63.4,-48.2C60.3,-52.7 56.4,-57.5 51.6,-62.4L50.2,-61.6C54.9,-55.6 58.5,-48.2 61.4,-40.9C57.5,-28.1 52,-15.4 44.5,-5.5L45.8,-4.5C53.9,-12.1 60,-21.7 64.7,-31.6C66.8,-24.8 68.4,-18.4 69.6,-13.4C75.3,-7.7 79.1,-20.7 68.3,-40.3C71.7,-48.9 74,-57.5 75.7,-65C78.5,-65.2 79.4,-65.8 79.7,-67.1ZM51.8,-67.1L39.6,-69.5C38.9,-63.1 37.7,-55.9 36,-48.4C32.4,-52.9 27.8,-57.6 22.1,-62.4L20.8,-61.4C26.3,-55.5 30.7,-48.2 34.1,-40.9C30.8,-29 26.1,-17.1 19.7,-7.8L21,-6.9C28.2,-14.1 33.6,-23.1 37.7,-32.4C39.7,-27.3 41.3,-22.5 42.6,-18.6C48.2,-13.8 51.2,-25 41.2,-41.1C44.2,-49.5 46.3,-57.8 47.8,-64.9C50.6,-65 51.5,-65.7 51.8,-67.1ZM18.1,5L18.1,-74.7L81.8,-74.7L81.8,-3.2C81.8,-1.6 81.2,-0.7 78.9,-0.7C76.2,-0.7 63,-1.7 63,-1.7L63,-0.2C68.8,0.6 71.8,1.6 73.8,2.9C75.5,4 76.2,5.8 76.7,8.2C88.1,7.1 89.7,3.4 89.7,-2.5L89.7,-73.2C91.7,-73.6 93.3,-74.5 94,-75.2L84.8,-82.3L80.8,-77.6L18.8,-77.6L10.3,-81.4L10.3,8.1L11.7,8.1C15.2,8.1 18.1,6.1 18.1,5Z"></path><path transform="translate(300 100)" d="M43,-84.2L42,-83.5C45.7,-80.4 49,-74.8 49.4,-70.1C57.8,-63.9 65.5,-80.9 43,-84.2ZM17,-73.5L15.4,-73.4C15.8,-67.3 11.8,-61.9 8,-59.8C5.4,-58.4 3.7,-56 4.7,-53.2C5.9,-50.1 10.3,-49.7 13.1,-51.7C16.2,-53.7 18.9,-58.3 18.6,-65.1L82.7,-65.1C81.6,-61.3 79.8,-56.4 78.3,-53.2L79.5,-52.5C83.7,-55.3 89.3,-60.1 92.4,-63.6C94.4,-63.7 95.5,-63.9 96.3,-64.6L87.4,-73L82.5,-68.1L18.3,-68.1C18,-69.8 17.6,-71.6 17,-73.5ZM86,-35.3L80.6,-28.5L54,-28.5L54,-37.3C56.2,-37.6 57.2,-38.4 57.5,-39.8L57.2,-39.8C63.8,-42.5 70.3,-46.3 75.3,-49.6C77.3,-49.8 78.5,-49.9 79.3,-50.7L70.6,-58.5L65.5,-53.5L21.5,-53.5L22.4,-50.6L64.4,-50.6C61.5,-47.3 57.5,-43.3 53.6,-40.2L45.8,-41L45.8,-28.5L4.6,-28.5L5.4,-25.6L45.8,-25.6L45.8,-3.2C45.8,-1.7 45.2,-1.1 43.3,-1.1C40.9,-1.1 28.3,-2 28.3,-2L28.3,-0.5C33.7,0.2 36.5,1.1 38.4,2.4C40.1,3.8 40.7,5.7 41.1,8.2C52.5,7.2 54,3.4 54,-2.7L54,-25.6L93,-25.6C94.4,-25.6 95.5,-26.1 95.7,-27.2C92,-30.6 86,-35.3 86,-35.3Z"></path><path transform="translate(400 100)" d="M14.7,-83.6L13.6,-82.9C18.5,-78.1 24.8,-70.2 26.8,-64C35.4,-58.9 40.6,-76.1 14.7,-83.6ZM27.4,-52.8C29.4,-53.2 30.7,-54 31.1,-54.7L23.7,-60.9L19.8,-56.9L4.2,-56.9L5.1,-54L19.7,-54L19.7,-11.1C19.7,-9.2 19.1,-8.5 15.8,-6.6L21.3,2.7C22.2,2.2 23.3,1.1 24,-0.6C33.1,-7.8 41,-14.8 45.2,-18.5L44.6,-19.7L27.4,-11.1L27.4,-52.8ZM72.7,-82.5L60.9,-83.8L60.9,-48L35.3,-48L36.1,-45.1L60.9,-45.1L60.9,7.8L62.5,7.8C65.6,7.8 69,5.9 69,4.8L69,-45.1L94.1,-45.1C95.5,-45.1 96.5,-45.6 96.8,-46.7C93.1,-50.1 87.2,-54.8 87.2,-54.8L82,-48L69,-48L69,-79.8C71.7,-80.2 72.4,-81.1 72.7,-82.5Z"></path><path transform="translate(500 100)" d="M31.6,-79.7L30.7,-78.7C35.2,-76 40.5,-70.7 42.1,-66.1C50.1,-62 54.3,-77.7 31.6,-79.7ZM63.7,-75.5L63.7,-12.9L65.2,-12.9C68.1,-12.9 71.3,-14.6 71.3,-15.5L71.3,-71.6C73.9,-71.9 74.7,-73 75,-74.4L63.7,-75.5ZM83.4,-82.4L83.4,-3.6C83.4,-2.2 82.8,-1.5 80.9,-1.5C78.8,-1.5 67.7,-2.3 67.7,-2.3L67.7,-0.8C72.6,-0.1 75.2,0.8 76.9,2.2C78.3,3.5 78.9,5.6 79.3,8.2C90,7.1 91.4,3.3 91.4,-3L91.4,-78.4C93.8,-78.8 94.8,-79.7 95.1,-81.2L83.4,-82.4ZM2.9,-52.3L4,-49.6L19.2,-51.7C21,-40.1 24,-29.3 28.5,-19.8C21.5,-10.3 13.1,-2.7 3.1,3.8L4.1,5.4C14.8,0.2 23.8,-6.3 31.4,-14.3C34.9,-8.2 39.3,-2.7 44.5,2C49,6.1 55.8,9.6 59,6.2C60.2,5 59.9,2.9 56.6,-1.8L58.7,-17.5L57.5,-17.7C56,-13.7 53.9,-8.7 52.5,-6.2C51.6,-4.4 50.8,-4.4 49.2,-6C44.2,-9.9 40.2,-15 37,-20.8C42.6,-28.1 47.3,-36.5 51.2,-46.2C53.8,-45.9 54.7,-46.4 55.2,-47.6L44.6,-51.7C41.6,-42.6 37.9,-34.6 33.7,-27.5C30.4,-35.2 28.3,-43.8 27,-52.7L57.8,-56.9C59.1,-57.1 60,-57.8 60.1,-58.9C56.6,-61.4 50.9,-64.9 50.9,-64.9L46.9,-58.4L26.6,-55.6C25.5,-63.7 25.1,-72.1 25.2,-80.2C27.7,-80.6 28.6,-81.8 28.8,-83L16.8,-84.2C16.8,-74 17.4,-64 18.7,-54.5L2.9,-52.3Z"></path><path transform="translate(0 200)" d="M2.2,-53.7L6.8,-53.7L10.1,-69.6L28.2,-69.6C28.4,-59.5 28.4,-49.4 28.4,-39.2L28.4,-33.9C28.4,-23.9 28.4,-13.9 28.2,-4.1L17,-3.1L17,-0L50.1,-0L50.1,-3.1L38.8,-4.1C38.7,-14 38.7,-24 38.7,-34L38.7,-39.2C38.7,-49.4 38.7,-59.6 38.8,-69.6L56.9,-69.6L60.2,-53.7L64.8,-53.7L64,-73.2L3,-73.2L2.2,-53.7Z"></path><path transform="translate(67 200)" d="M46.1,-0L63.8,-0L63.8,-2.8L56.4,-3.6C56.3,-9.1 56.2,-17.4 56.2,-23L56.2,-34.6C56.2,-48.3 50.7,-53.7 41.7,-53.7C34.8,-53.7 28.4,-50.5 21.9,-43L21.9,-64.4L22.2,-80L20.7,-80.9L3.8,-77.7L3.8,-75L12.3,-74.5L12.3,-23L12.1,-3.6L4.1,-2.8L4.1,-0L29.4,-0L29.4,-2.8L22.3,-3.6L22.1,-23L22.1,-39.9C28.1,-45.9 33.5,-47.9 37.6,-47.9C43.1,-47.9 46.5,-44.6 46.5,-35.2L46.5,-23C46.5,-17.4 46.4,-9.2 46.3,-3.6L38.4,-2.8L38.4,-0L46.1,-0Z"></path><path transform="translate(134 200)" d="M30.7,1.5C39.9,1.5 46.9,-2.7 51.2,-9.9L49.5,-11.2C45.6,-6.5 40.6,-3.9 33.6,-3.9C22.9,-3.9 15.1,-10.8 14.8,-26.5L50.5,-26.5C50.9,-28.1 51.1,-30.1 51.1,-32.5C51.1,-44.5 43.4,-53.7 29.9,-53.7C16.4,-53.7 4.6,-43.2 4.6,-26C4.6,-7.8 15.5,1.5 30.7,1.5ZM14.9,-29.7C15.5,-43.2 21.8,-50.4 29.6,-50.4C37.2,-50.4 41.8,-44.6 41.8,-36C41.8,-31.6 40.7,-29.7 37,-29.7L14.9,-29.7Z"></path><path transform="translate(189 200)" d=""></path><path transform="translate(214 200)" d="M5.1,-70.1L15.1,-69.3C15.3,-59.3 15.3,-49.3 15.3,-39.2L15.3,-33.9C15.3,-23.9 15.3,-13.8 15.1,-4L5.1,-3.1L5.1,-0L37.1,-0L37.1,-3.1L25.8,-4.1L25.7,-29.8L31.3,-29.8C52.8,-29.8 61.6,-39.4 61.6,-51.8C61.6,-65.1 52.9,-73.2 33.8,-73.2L5.1,-73.2L5.1,-70.1ZM25.7,-33.2L25.7,-39.2C25.7,-49.4 25.7,-59.6 25.8,-69.7L33.2,-69.7C45.7,-69.7 51.6,-63.5 51.6,-51.8C51.6,-40.8 45.5,-33.2 31,-33.2L25.7,-33.2Z"></path><path transform="translate(278 200)" d="M21.9,-31.9C24.6,-40 28.2,-44.8 33.2,-47.5L34.1,-46.6C36.5,-43.9 38.4,-42.4 41.1,-42.4C45,-42.4 46.7,-44.8 46.7,-48.5C45.8,-52 42.5,-53.7 38.5,-53.7C31.8,-53.7 25.2,-48 21.9,-38.8L21.3,-52.6L20,-53.4L3.4,-49L3.4,-46.5L11.9,-45.9C12.1,-41 12.2,-36.3 12.2,-29.5L12.2,-23L12,-3.7L4,-2.8L4,-0L31.6,-0L31.6,-2.8L22.1,-3.8L21.9,-23L21.9,-31.9Z"></path><path transform="translate(324 200)" d="M30.1,1.5C44.1,1.5 55.8,-8.1 55.8,-26.1C55.8,-44.1 43.6,-53.7 30.1,-53.7C16.7,-53.7 4.6,-44 4.6,-26.1C4.6,-8.2 16.1,1.5 30.1,1.5ZM30.1,-1.7C20.7,-1.7 15.1,-10.1 15.1,-26C15.1,-42 20.7,-50.4 30.1,-50.4C39.5,-50.4 45.2,-42 45.2,-26C45.2,-10.1 39.5,-1.7 30.1,-1.7Z"></path><path transform="translate(384 200)" d="M16.3,-65.5C19.7,-65.5 22.6,-68 22.6,-71.6C22.6,-75.1 19.7,-77.7 16.3,-77.7C12.8,-77.7 9.9,-75.1 9.9,-71.6C9.9,-68 12.8,-65.5 16.3,-65.5ZM0.9,27.1C6,27.1 10.5,25.5 14.7,21.2C20.7,15.4 21.7,7.8 21.7,-9.7L21.7,-38.2L22,-52.5L20.5,-53.4L3.2,-49.1L3.2,-46.6L11.7,-46.1C12,-41.1 12.1,-35.9 12.1,-29.3L12.1,-9.9C12.1,3.6 12.1,14.1 9.7,19.4C8.9,21 7.8,22.3 6.6,23.2L4.5,21C2.2,18.4 0.2,17.3 -2.4,17.3C-5.5,17.3 -7.7,18.9 -8.4,22C-7.7,24.9 -4.8,27.1 0.9,27.1Z"></path><path transform="translate(416 200)" d="M30.7,1.5C39.9,1.5 46.9,-2.7 51.2,-9.9L49.5,-11.2C45.6,-6.5 40.6,-3.9 33.6,-3.9C22.9,-3.9 15.1,-10.8 14.8,-26.5L50.5,-26.5C50.9,-28.1 51.1,-30.1 51.1,-32.5C51.1,-44.5 43.4,-53.7 29.9,-53.7C16.4,-53.7 4.6,-43.2 4.6,-26C4.6,-7.8 15.5,1.5 30.7,1.5ZM14.9,-29.7C15.5,-43.2 21.8,-50.4 29.6,-50.4C37.2,-50.4 41.8,-44.6 41.8,-36C41.8,-31.6 40.7,-29.7 37,-29.7L14.9,-29.7Z"></path><path transform="translate(471 200)" d="M30,1.5C39.9,1.5 46,-2.5 50.6,-9.8L48.9,-11.1C44.7,-6.3 39.6,-3.9 33.7,-3.9C22.5,-3.9 14.8,-12.2 14.8,-26.6C14.8,-41.4 22.4,-50.4 32.4,-50.4C34.4,-50.4 36.3,-50.1 38.3,-49.4L40.2,-42C40.7,-37.8 42.7,-36.2 45.8,-36.2C48.2,-36.2 49.8,-37.4 50.5,-40C48.4,-48.1 40.9,-53.7 31.5,-53.7C17.2,-53.7 4.6,-43.6 4.6,-25.4C4.6,-8.4 15.2,1.5 30,1.5Z"></path><path transform="translate(526 200)" d="M23.8,1.5C29.6,1.5 33.7,-0.5 36.5,-4.2L35,-6C32.3,-4.2 30.4,-3.3 27.5,-3.3C23.2,-3.3 20.8,-5.9 20.8,-11.9L20.8,-48.4L34.7,-48.4L34.7,-52.2L20.8,-52.2L21.1,-67.9L14.7,-67.9L11.5,-52.3L1.4,-51.5L1.4,-48.4L11,-48.4L11,-21.5C11,-17.8 10.9,-15.5 10.9,-12.2C10.9,-2.8 15.1,1.5 23.8,1.5Z"></path><path transform="translate(563 200)" d=""></path><path transform="translate(588 200)" d="M55.3,-54.8L59.8,-54.8L59.3,-73.2L5.1,-73.2L5.1,-70.1L15.1,-69.3C15.3,-59.3 15.3,-49.3 15.3,-39.2L15.3,-33.9C15.3,-23.9 15.3,-13.8 15.1,-4L5.1,-3.1L5.1,-0L37.1,-0L37.1,-3.1L25.8,-4.1C25.7,-14 25.7,-24 25.7,-35.5L42.8,-35.5L44.1,-24.8L47.9,-24.8L47.9,-49.3L44.1,-49.3L42.7,-38.9L25.7,-38.9C25.7,-49.7 25.7,-59.8 25.8,-69.6L52.2,-69.6L55.3,-54.8Z"></path><path transform="translate(646 200)" d="M30.1,1.5C44.1,1.5 55.8,-8.1 55.8,-26.1C55.8,-44.1 43.6,-53.7 30.1,-53.7C16.7,-53.7 4.6,-44 4.6,-26.1C4.6,-8.2 16.1,1.5 30.1,1.5ZM30.1,-1.7C20.7,-1.7 15.1,-10.1 15.1,-26C15.1,-42 20.7,-50.4 30.1,-50.4C39.5,-50.4 45.2,-42 45.2,-26C45.2,-10.1 39.5,-1.7 30.1,-1.7Z"></path><path transform="translate(706 200)" d="M21.9,-31.9C24.6,-40 28.2,-44.8 33.2,-47.5L34.1,-46.6C36.5,-43.9 38.4,-42.4 41.1,-42.4C45,-42.4 46.7,-44.8 46.7,-48.5C45.8,-52 42.5,-53.7 38.5,-53.7C31.8,-53.7 25.2,-48 21.9,-38.8L21.3,-52.6L20,-53.4L3.4,-49L3.4,-46.5L11.9,-45.9C12.1,-41 12.2,-36.3 12.2,-29.5L12.2,-23L12,-3.7L4,-2.8L4,-0L31.6,-0L31.6,-2.8L22.1,-3.8L21.9,-23L21.9,-31.9Z"></path><path transform="translate(753 200)" d=""></path><path transform="translate(778 200)" d="M81.5,-70.1L91.4,-69L76.5,-12.5L59.9,-69.1L70.8,-70.1L70.8,-73.2L42,-73.2L42,-70.1L52,-69.1L35.4,-12.7L20.4,-69.2L30.4,-70.1L30.4,-73.2L1.2,-73.2L1.2,-70.1L9.6,-69.3L29.4,0.6L35,0.6L52.8,-59.4L71,0.6L76.6,0.6L95.8,-69L105.7,-70.1L105.7,-73.2L81.5,-73.2L81.5,-70.1Z"></path><path transform="translate(876 200)" d="M30.7,1.5C39.9,1.5 46.9,-2.7 51.2,-9.9L49.5,-11.2C45.6,-6.5 40.6,-3.9 33.6,-3.9C22.9,-3.9 15.1,-10.8 14.8,-26.5L50.5,-26.5C50.9,-28.1 51.1,-30.1 51.1,-32.5C51.1,-44.5 43.4,-53.7 29.9,-53.7C16.4,-53.7 4.6,-43.2 4.6,-26C4.6,-7.8 15.5,1.5 30.7,1.5ZM14.9,-29.7C15.5,-43.2 21.8,-50.4 29.6,-50.4C37.2,-50.4 41.8,-44.6 41.8,-36C41.8,-31.6 40.7,-29.7 37,-29.7L14.9,-29.7Z"></path><path transform="translate(930 200)" d="M38,1.5C51.2,1.5 60.2,-10.2 60.2,-26.5C60.2,-43.4 51.3,-53.7 39,-53.7C33,-53.7 27,-51.3 21.9,-45.8L21.9,-64.4L22.2,-80L20.7,-80.9L3.8,-77.7L3.8,-75L12.3,-74.5L12.3,-23C12.3,-17.5 12.2,-9.2 12.1,-3.5L4.1,-2.8L4.1,-0L20.6,1.1L21.9,-6.5C26.6,-0.9 32.3,1.5 38,1.5ZM22.1,-43C27,-47.5 30.9,-48.6 34.8,-48.6C43.5,-48.6 49.8,-41.6 49.8,-26.6C49.8,-9.5 42.7,-3.7 34.6,-3.7C30.2,-3.7 26.3,-5.3 22.1,-9.3L22.1,-43Z"></path></svg>