<svg  xmlns="http://www.w3.org/2000/svg" xmlns:xlink="http://www.w3.org/1999/xlink" width="907" height="300" viewBox="0 0 931 324"><path transform="translate(0 100)" d="M5,21.7L45,21.7L45,-73.9L5,-73.9L5,21.7ZM10,16.7L10,-68.9L40,-68.9L40,16.7L10,16.7Z"></path><path transform="translate(50 100)" d="M5,21.7L45,21.7L45,-73.9L5,-73.9L5,21.7ZM10,16.7L10,-68.9L40,-68.9L40,16.7L10,16.7Z"></path><path transform="translate(100 100)" d="M5,21.7L45,21.7L45,-73.9L5,-73.9L5,21.7ZM10,16.7L10,-68.9L40,-68.9L40,16.7L10,16.7Z"></path><path transform="translate(150 100)" d="M5,21.7L45,21.7L45,-73.9L5,-73.9L5,21.7ZM10,16.7L10,-68.9L40,-68.9L40,16.7L10,16.7Z"></path><path transform="translate(200 100)" d="M5,21.7L45,21.7L45,-73.9L5,-73.9L5,21.7ZM10,16.7L10,-68.9L40,-68.9L40,16.7L10,16.7Z"></path><path transform="translate(250 100)" d="M5,21.7L45,21.7L45,-73.9L5,-73.9L5,21.7ZM10,16.7L10,-68.9L40,-68.9L40,16.7L10,16.7Z"></path><path transform="translate(0 200)" d="M24.1,-0L32.4,-0L32.4,-62.2L55.6,-62.2L55.6,-69.4L1,-69.4L1,-62.2L24.1,-62.2L24.1,-0Z"></path><path transform="translate(57 200)" d="M41.2,-0L49.2,-0L49.2,-31.6C49.2,-42.3 42.1,-49.2 31.3,-49.2C24.3,-49.2 17.4,-46.2 12.3,-40.3L14.2,-35.2C18.2,-39.9 23.5,-42.2 29.1,-42.2C36.9,-42.2 41.2,-37.8 41.2,-30L41.2,-0ZM8.3,-0L16.3,-0L16.3,-73.9L8.3,-73.9L8.3,-0Z"></path><path transform="translate(114 200)" d="M30,1C35.5,1 41.5,-0.3 45.8,-2.6L44,-8.4C40.3,-6.6 35.6,-5.5 31.4,-5.5C20.1,-5.5 13.4,-13 13.4,-25.5C13.4,-36.4 18.3,-42.4 27.1,-42.4C35.3,-42.4 40.1,-37.1 40.1,-27.9L12,-27.9L12,-21.9L47.2,-21.9C47.4,-23.4 47.6,-26.9 47.6,-28.8C47.6,-40.9 39.6,-49.2 27.7,-49.2C14.3,-49.2 5.2,-38.7 5.2,-23.9C5.2,-8.5 14.7,1 30,1Z"></path><path transform="translate(167 200)" d=""></path><path transform="translate(189 200)" d="M9.2,-0L17.5,-0L17.5,-62.2L29.8,-62.2C39.9,-62.2 46.7,-55.6 46.7,-45.8C46.7,-36.4 41.1,-31.4 30.8,-31.4L14.5,-31.4L14.5,-24.2L29.3,-24.2C44.8,-24.2 55.2,-33.4 55.2,-47.3C55.2,-60.6 45.4,-69.4 30.8,-69.4L9.2,-69.4L9.2,-0Z"></path><path transform="translate(248 200)" d="M8.3,-0L16.3,-0L16.3,-37L14.9,-48.2L8.3,-48.2L8.3,-0ZM14.5,-31.3C17.3,-37.4 23.1,-41.1 29.7,-41.1C31.6,-41.1 33.4,-40.8 35,-40.2L37,-47.6C34.9,-48.3 32.8,-48.7 30.6,-48.7C24.1,-48.7 18.1,-45.2 14.5,-39.4L14.5,-31.3Z"></path><path transform="translate(286 200)" d="M27.7,1C41.9,1 51.5,-9.3 51.5,-24.7C51.5,-39.6 42.6,-49.2 28.9,-49.2C14.7,-49.2 5.2,-39 5.2,-23.6C5.2,-8.7 14,1 27.7,1ZM28.8,-6C19.5,-6 13.2,-13.5 13.2,-24.6C13.2,-35.3 18.9,-42.2 27.8,-42.2C37.1,-42.2 43.5,-34.6 43.5,-23.6C43.5,-13 37.7,-6 28.8,-6Z"></path><path transform="translate(343 200)" d="M1.9,22.7C11,18.7 16.3,11.1 16.3,2.3L16.3,-48.2L8.3,-48.2L8.3,3.5C8.3,9.1 4.7,14.8 -0.7,17.9L1.9,22.7ZM12.3,-59.5C15.9,-59.5 18,-61.6 18,-65.2C18,-68.8 15.9,-70.9 12.3,-70.9C8.7,-70.9 6.6,-68.8 6.6,-65.2C6.6,-61.6 8.7,-59.5 12.3,-59.5Z"></path><path transform="translate(368 200)" d="M30,1C35.5,1 41.5,-0.3 45.8,-2.6L44,-8.4C40.3,-6.6 35.6,-5.5 31.4,-5.5C20.1,-5.5 13.4,-13 13.4,-25.5C13.4,-36.4 18.3,-42.4 27.1,-42.4C35.3,-42.4 40.1,-37.1 40.1,-27.9L12,-27.9L12,-21.9L47.2,-21.9C47.4,-23.4 47.6,-26.9 47.6,-28.8C47.6,-40.9 39.6,-49.2 27.7,-49.2C14.3,-49.2 5.2,-38.7 5.2,-23.9C5.2,-8.5 14.7,1 30,1Z"></path><path transform="translate(421 200)" d="M27.2,1C33,1 39,-0.4 43,-2.8L41.2,-8.6C37.2,-6.7 32.8,-5.6 29.1,-5.6C19.1,-5.6 13.4,-12.6 13.4,-24.3C13.4,-35.9 19,-42.2 29,-42.2C32.8,-42.2 37.1,-41.3 41.1,-39.5L43,-46C38.6,-48.1 33.9,-49.2 29.1,-49.2C14.8,-49.2 5.2,-38.6 5.2,-22.7C5.2,-7.8 13.4,1 27.2,1Z"></path><path transform="translate(468 200)" d="M24.8,0.5C28.1,0.5 31.4,-0.3 33.7,-1.3L31.9,-7.1C30.4,-6.4 28.2,-6 26.5,-6C21.5,-6 18.2,-9.2 18.2,-14L18.2,-62.3L10.2,-62.3L10.2,-12.9C10.2,-4.9 16,0.5 24.8,0.5ZM3.7,-41.5L31.4,-41.5L31.4,-48.2L3.7,-48.2L3.7,-41.5Z"></path><path transform="translate(504 200)" d=""></path><path transform="translate(526 200)" d="M9.2,-0L17.5,-0L17.5,-32.2L49.4,-32.2L49.4,-39.4L17.5,-39.4L17.5,-62.2L52.3,-62.2L52.3,-69.4L9.2,-69.4L9.2,-0Z"></path><path transform="translate(582 200)" d="M27.7,1C41.9,1 51.5,-9.3 51.5,-24.7C51.5,-39.6 42.6,-49.2 28.9,-49.2C14.7,-49.2 5.2,-39 5.2,-23.6C5.2,-8.7 14,1 27.7,1ZM28.8,-6C19.5,-6 13.2,-13.5 13.2,-24.6C13.2,-35.3 18.9,-42.2 27.8,-42.2C37.1,-42.2 43.5,-34.6 43.5,-23.6C43.5,-13 37.7,-6 28.8,-6Z"></path><path transform="translate(639 200)" d="M8.3,-0L16.3,-0L16.3,-37L14.9,-48.2L8.3,-48.2L8.3,-0ZM14.5,-31.3C17.3,-37.4 23.1,-41.1 29.7,-41.1C31.6,-41.1 33.4,-40.8 35,-40.2L37,-47.6C34.9,-48.3 32.8,-48.7 30.6,-48.7C24.1,-48.7 18.1,-45.2 14.5,-39.4L14.5,-31.3Z"></path><path transform="translate(677 200)" d=""></path><path transform="translate(699 200)" d="M22.1,-0L30.4,-0L50.8,-65.3L46.6,-65.3L68.2,-0L76.2,-0L96.8,-69.4L88.5,-69.4L70.3,-3.9L74.8,-3.9L53.9,-68.9L44.6,-68.9L24.5,-3.9L28.5,-3.9L10.8,-69.4L1.2,-69.4L22.1,-0Z"></path><path transform="translate(797 200)" d="M30,1C35.5,1 41.5,-0.3 45.8,-2.6L44,-8.4C40.3,-6.6 35.6,-5.5 31.4,-5.5C20.1,-5.5 13.4,-13 13.4,-25.5C13.4,-36.4 18.3,-42.4 27.1,-42.4C35.3,-42.4 40.1,-37.1 40.1,-27.9L12,-27.9L12,-21.9L47.2,-21.9C47.4,-23.4 47.6,-26.9 47.6,-28.8C47.6,-40.9 39.6,-49.2 27.7,-49.2C14.3,-49.2 5.2,-38.7 5.2,-23.9C5.2,-8.5 14.7,1 30,1Z"></path><path transform="translate(850 200)" d="M28.8,1C42.6,1 51.8,-9.3 51.8,-24.7C51.8,-39.4 43,-49.2 29.8,-49.2C20.6,-49.2 13.9,-44.5 10.7,-36.4L13.7,-32C15.9,-38.4 21.1,-42.2 27.9,-42.2C37.5,-42.2 43.8,-34.6 43.8,-23.5C43.8,-13 38.1,-6 28.8,-6C22.1,-6 16.9,-9.6 14.3,-15.5L10.6,-11.1C13.7,-3.3 20,1 28.8,1ZM8.3,-0L13.9,-0L16.3,-5.6L16.3,-73.9L8.3,-73.9L8.3,-0Z"></path></svg>