<svg  xmlns="http://www.w3.org/2000/svg" xmlns:xlink="http://www.w3.org/1999/xlink" width="989" height="300" viewBox="0 0 1013 324"><path transform="translate(0 100)" d="M82.2,-33.4L53,-33.4L53,-59.9L82.2,-59.9L82.2,-33.4ZM56.7,-82.7L46.3,-83.8L46.3,-62.8L17.9,-62.8L10.6,-66.2L10.6,-21L11.7,-21C14.5,-21 17.2,-22.6 17.2,-23.3L17.2,-30.5L46.3,-30.5L46.3,7.8L47.6,7.8C50.2,7.8 53,6.2 53,5.1L53,-30.5L82.2,-30.5L82.2,-22.2L83.2,-22.2C85.4,-22.2 88.8,-23.7 88.9,-24.3L88.9,-58.6C90.9,-59 92.5,-59.8 93.2,-60.6L84.9,-67L81.2,-62.8L53,-62.8L53,-79.9C55.6,-80.3 56.4,-81.3 56.7,-82.7ZM17.2,-33.4L17.2,-59.9L46.3,-59.9L46.3,-33.4L17.2,-33.4Z"></path><path transform="translate(100 100)" d="M40.7,-83.6L39.7,-82.8C44.9,-78.6 51,-71.3 52.7,-65.4C60,-60.5 64.7,-76.2 40.7,-83.6ZM70,-59C66.5,-44.8 60.2,-32.4 50.5,-21.8C39.9,-31.4 32,-43.7 27.5,-59L70,-59ZM86.4,-68.5L81.2,-62L4.7,-62L5.6,-59L25.4,-59C29.3,-41.9 36.4,-28.3 46.3,-17.5C35.8,-7.5 21.8,0.6 4.1,6.5L4.9,8.1C23.9,3.1 38.8,-4.1 50.2,-13.6C60.6,-3.9 73.6,3.2 89.1,7.8C90.4,4.4 93.2,2.4 96.6,2.2L96.9,1.1C80.7,-2.7 66.5,-8.9 55,-18C66.4,-29 73.9,-42.7 78.4,-59L93,-59C94.4,-59 95.3,-59.5 95.6,-60.6C92.1,-63.9 86.4,-68.5 86.4,-68.5Z"></path><path transform="translate(200 100)" d="M79.9,-66.7L69.2,-69C68.1,-62 66.5,-54.2 64.1,-46.2C60.9,-51.2 56.7,-56.5 51.6,-62L50.2,-61.1C55.2,-55 59.1,-47.5 62.2,-39.9C58.1,-27.7 52.4,-15.5 44.9,-6.1L46.2,-5.1C54.2,-12.8 60.3,-22.4 65,-32.5C67.5,-25.1 69.3,-18.2 70.7,-13C75.9,-8.1 78.3,-20.7 68.1,-39.6C71.6,-48.4 74.1,-57.2 75.9,-64.8C78.7,-64.8 79.5,-65.4 79.9,-66.7ZM51.1,-66.7L40.3,-69C39.4,-62.4 38,-54.8 36,-47.2C32.4,-51.9 27.7,-56.9 21.9,-62L20.7,-61C26.3,-55.3 30.7,-48.1 34.2,-40.9C30.7,-29.2 25.8,-17.5 19.2,-8.4L20.5,-7.4C27.7,-14.9 33.2,-24.3 37.4,-33.9C39.8,-28.1 41.7,-22.7 43.2,-18.4C48.3,-14.3 50.2,-25.2 40.3,-41C43.4,-49.4 45.5,-57.6 47.1,-64.7C49.8,-64.8 50.7,-65.4 51.1,-66.7ZM17.2,5.2L17.2,-74.5L82.8,-74.5L82.8,-2.4C82.8,-0.7 82.1,0.2 79.7,0.2C77.1,0.2 64,-0.8 64,-0.8L64,0.7C69.6,1.4 72.8,2.3 74.7,3.4C76.3,4.4 77,5.9 77.5,7.8C87.9,6.8 89.2,3.4 89.2,-1.7L89.2,-73.3C91.3,-73.7 92.9,-74.5 93.6,-75.2L85.2,-81.6L81.8,-77.5L17.8,-77.5L10.8,-80.8L10.8,7.7L12,7.7C14.9,7.7 17.2,6.1 17.2,5.2Z"></path><path transform="translate(300 100)" d="M43.7,-83.9L42.7,-83.2C46.3,-80.1 49.8,-74.6 50.4,-70.1C57.3,-65 63.6,-79.4 43.7,-83.9ZM16.9,-73.3L15.2,-73.2C15.7,-66.7 11.8,-60.9 7.9,-58.8C5.6,-57.5 4.2,-55.4 5.1,-53.1C6.3,-50.5 10.1,-50.5 12.7,-52.3C15.6,-54.3 18.3,-58.6 18.3,-65.1L83.6,-65.1C82.3,-61.3 80.2,-56.6 78.6,-53.4L80,-52.7C83.9,-55.6 89.2,-60.4 92,-63.9C94.1,-64 95.2,-64.2 95.9,-64.8L88,-72.5L83.5,-68.1L18,-68.1C17.8,-69.7 17.5,-71.5 16.9,-73.3ZM86.4,-34.8L81.4,-28.6L53.2,-28.6L53.2,-37.4C55.5,-37.7 56.5,-38.5 56.7,-40C63.3,-42.8 69.8,-46.6 74.7,-49.9C76.7,-50 77.9,-50.2 78.7,-50.9L70.8,-58.1L66.3,-53.6L21.5,-53.6L22.4,-50.6L64.9,-50.6C61.9,-47.3 57.7,-43.3 53.5,-40.4L46.6,-41.1L46.6,-28.6L4.7,-28.6L5.6,-25.6L46.6,-25.6L46.6,-2.3C46.6,-0.7 46,-0.1 44,-0.1C41.6,-0.1 29.4,-1 29.4,-1L29.4,0.6C34.6,1.2 37.5,1.9 39.3,3C40.8,4.2 41.4,5.8 41.8,7.8C52,6.8 53.2,3.5 53.2,-1.8L53.2,-25.6L92.7,-25.6C94.1,-25.6 95.1,-26.1 95.4,-27.2C91.9,-30.4 86.4,-34.8 86.4,-34.8Z"></path><path transform="translate(400 100)" d="M15.3,-83.5L14.2,-82.7C19.2,-77.9 25.7,-69.7 27.7,-63.6C35,-59 39.3,-74.2 15.3,-83.5ZM26.6,-52.9C28.5,-53.3 29.8,-54 30.2,-54.7L23.7,-60.2L20.4,-56.7L4.5,-56.7L5.4,-53.8L20.3,-53.8L20.3,-10.2C20.3,-8.4 19.8,-7.7 16.7,-6.1L21.2,2C22,1.6 23.1,0.5 23.7,-1.1C32.5,-7.8 40.5,-14.6 44.8,-18L44,-19.3C37.8,-15.9 31.6,-12.6 26.6,-10L26.6,-52.9ZM71.7,-82.4L61.5,-83.6L61.5,-48L35,-48L35.8,-45.1L61.5,-45.1L61.5,7.5L62.8,7.5C65.3,7.5 68.1,6 68.1,4.9L68.1,-45.1L93.7,-45.1C95.1,-45.1 96.1,-45.6 96.4,-46.7C93,-49.8 87.6,-54.1 87.6,-54.1L82.9,-48L68.1,-48L68.1,-79.7C70.7,-80.1 71.4,-81 71.7,-82.4Z"></path><path transform="translate(500 100)" d="M31.8,-79.3L30.8,-78.3C35.6,-75.6 41.4,-70.3 43.1,-65.7C50.3,-62.1 53.6,-76.6 31.8,-79.3ZM64.8,-75.1L64.8,-12.5L66,-12.5C68.4,-12.5 71.1,-13.9 71.1,-14.8L71.1,-71.3C73.6,-71.6 74.5,-72.6 74.8,-74L64.8,-75.1ZM84.4,-82L84.4,-2.7C84.4,-1.1 83.9,-0.4 81.9,-0.4C79.8,-0.4 68.8,-1.3 68.8,-1.3L68.8,0.3C73.5,1 76.2,1.7 77.8,2.9C79.2,4 79.8,5.7 80.2,7.8C89.8,6.8 90.9,3.4 90.9,-2.1L90.9,-78.1C93.4,-78.4 94.4,-79.4 94.6,-80.8L84.4,-82ZM3,-51.9L4.2,-49.2L20.3,-51.5C22.2,-40.1 25.2,-29.5 29.7,-20.3C22.4,-10.8 13.7,-3.1 3.5,3.5L4.6,5.2C15.3,-0.4 24.5,-7.1 32.1,-15.5C36,-8.7 40.7,-2.8 46.4,2C50.9,5.9 57,9.1 59.6,6C60.6,4.9 60.3,3.3 57.2,-0.8L59.1,-16.1L57.8,-16.3C56.5,-12.3 54.6,-7.4 53.4,-5.1C52.5,-3.1 51.7,-3.1 50,-4.7C44.6,-8.9 40.2,-14.4 36.7,-20.8C42.4,-28.1 47.3,-36.5 51.2,-46.1C53.8,-45.8 54.7,-46.2 55.2,-47.4L46,-51.1C42.7,-41.7 38.7,-33.6 34,-26.4C30.5,-34.3 28.2,-43.2 26.7,-52.4L58.4,-56.9C59.7,-57 60.6,-57.8 60.6,-58.9C57.5,-61.1 52.3,-64.3 52.3,-64.3L48.7,-58.5L26.3,-55.3C25.2,-63.5 24.7,-71.9 24.8,-80C27.3,-80.4 28.2,-81.6 28.4,-82.8L17.8,-84C17.8,-73.8 18.5,-63.8 19.9,-54.3L3,-51.9Z"></path><path transform="translate(0 200)" d="M2.2,-53.8L6.5,-53.8L9.4,-69.3L28.4,-69.3C28.6,-59.3 28.6,-49.2 28.6,-39.1L28.6,-33.7C28.6,-23.6 28.6,-13.7 28.4,-3.9L17,-3L17,-0L49,-0L49,-3L37.5,-3.9C37.4,-13.8 37.4,-23.7 37.4,-33.7L37.4,-39.1C37.4,-49.3 37.4,-59.4 37.5,-69.3L56.6,-69.3L59.5,-53.8L63.8,-53.8L62.9,-72.8L3,-72.8L2.2,-53.8Z"></path><path transform="translate(66 200)" d="M46.5,-0L62.9,-0L62.9,-2.8L55.2,-3.6C55.1,-9.1 55,-17.3 55,-22.9L55,-34.1C55,-47.8 49.7,-53.1 41,-53.1C34.2,-53.1 27.5,-49.8 20.8,-42.1L20.8,-64.1L21.1,-79.6L19.6,-80.5L4,-77.5L4,-74.8L12.8,-74.4L12.8,-22.9L12.6,-3.6L4.2,-2.8L4.2,-0L28.7,-0L28.7,-2.8L21.2,-3.6L21,-22.9L21,-39.1C27.6,-45.7 33.2,-47.7 37.5,-47.7C43.3,-47.7 46.8,-44.3 46.8,-34.4L46.8,-22.9L46.6,-3.6L38.4,-2.8L38.4,-0L46.5,-0Z"></path><path transform="translate(132 200)" d="M30.3,1.5C39.3,1.5 46,-2.6 50.4,-9.4L48.8,-10.8C44.7,-6 39.6,-3.5 32.5,-3.5C21.5,-3.5 13.7,-10.4 13.5,-26.3L49.5,-26.3C50,-27.9 50.2,-29.9 50.2,-32.3C50.2,-44.1 42.5,-53.1 29.5,-53.1C16.2,-53.1 4.8,-42.5 4.8,-25.7C4.8,-7.6 15.5,1.5 30.3,1.5ZM13.6,-29.4C14.3,-42.4 21,-49.9 29.3,-49.9C37.4,-49.9 42.2,-43.7 42.2,-35.2C42.2,-31.2 41.2,-29.4 37.7,-29.4L13.6,-29.4Z"></path><path transform="translate(187 200)" d=""></path><path transform="translate(213 200)" d="M5.3,-69.8L15.6,-69C15.7,-59.1 15.7,-49.1 15.7,-39.1L15.7,-33.7C15.7,-23.6 15.7,-13.7 15.6,-3.9L5.3,-3L5.3,-0L36.1,-0L36.1,-3L24.7,-4L24.6,-29.8L30.6,-29.8C51.6,-29.8 60.4,-39.3 60.4,-51.6C60.4,-64.7 51.9,-72.8 33.6,-72.8L5.3,-72.8L5.3,-69.8ZM24.6,-33.1L24.6,-39.1C24.6,-49.4 24.6,-59.5 24.7,-69.5L32.9,-69.5C45.9,-69.5 51.8,-63.3 51.8,-51.7C51.8,-40.7 45.6,-33.1 30.4,-33.1L24.6,-33.1Z"></path><path transform="translate(276 200)" d="M12.4,-0L30.6,-0L30.6,-2.8L21.1,-3.8L20.9,-22.9L20.9,-32.2C23.9,-40.3 27.6,-45.1 32.9,-47.6L33.8,-46.7C36.1,-44.3 37.8,-42.9 40.4,-42.9C43.9,-42.9 45.5,-45.1 45.6,-48.6C44.6,-51.5 41.4,-53.1 37.6,-53.1C30.9,-53.1 24.2,-47.3 20.9,-38.2L20.3,-52L19,-52.8L3.6,-48.8L3.6,-46.2L12.4,-45.8C12.6,-40.8 12.7,-35.8 12.7,-28.9L12.7,-22.9L12.5,-3.7L4.1,-2.8L4.1,-0L12.4,-0Z"></path><path transform="translate(321 200)" d="M29.7,1.5C43,1.5 54.7,-7.7 54.7,-25.8C54.7,-43.8 42.6,-53.1 29.7,-53.1C16.9,-53.1 4.8,-43.7 4.8,-25.8C4.8,-7.8 16.5,1.5 29.7,1.5ZM29.7,-1.6C19.8,-1.6 13.7,-10.1 13.7,-25.7C13.7,-41.3 19.8,-49.9 29.7,-49.9C39.6,-49.9 45.7,-41.3 45.7,-25.7C45.7,-10.1 39.6,-1.6 29.7,-1.6Z"></path><path transform="translate(381 200)" d="M16,-65.5C19.1,-65.5 21.7,-67.8 21.7,-71.1C21.7,-74.4 19.1,-76.8 16,-76.8C12.8,-76.8 10.1,-74.4 10.1,-71.1C10.1,-67.8 12.8,-65.5 16,-65.5ZM0.8,27.1C5.9,27.1 9.8,25.5 13.7,21.6C19.8,15.6 20.6,7.8 20.6,-10.4L20.6,-38L21,-51.9L19.5,-52.8L3.4,-48.9L3.4,-46.3L12.2,-45.9C12.4,-40.9 12.5,-35.5 12.5,-28.8L12.5,-9.6C12.5,4 12.4,14.3 9.8,19.4C8.9,21.2 7.7,22.4 6.3,23.4L4.3,21.5C2,19.3 0,18.4 -2.4,18.4C-5.3,18.4 -7.3,19.8 -7.9,22.5C-7.4,25 -4.6,27.1 0.8,27.1Z"></path><path transform="translate(412 200)" d="M30.3,1.5C39.3,1.5 46,-2.6 50.4,-9.4L48.8,-10.8C44.7,-6 39.6,-3.5 32.5,-3.5C21.5,-3.5 13.7,-10.4 13.5,-26.3L49.5,-26.3C50,-27.9 50.2,-29.9 50.2,-32.3C50.2,-44.1 42.5,-53.1 29.5,-53.1C16.2,-53.1 4.8,-42.5 4.8,-25.7C4.8,-7.6 15.5,1.5 30.3,1.5ZM13.6,-29.4C14.3,-42.4 21,-49.9 29.3,-49.9C37.4,-49.9 42.2,-43.7 42.2,-35.2C42.2,-31.2 41.2,-29.4 37.7,-29.4L13.6,-29.4Z"></path><path transform="translate(467 200)" d="M29.7,1.5C39.2,1.5 45.2,-2.5 49.7,-9.4L48.1,-10.7C43.6,-5.8 38.5,-3.5 32.5,-3.5C21.3,-3.5 13.5,-11.8 13.5,-26.2C13.5,-40.8 21.3,-49.9 31.5,-49.9C33.8,-49.9 36,-49.5 38.2,-48.6L40.3,-41.3C40.9,-37.8 42.5,-36.4 45.3,-36.4C47.5,-36.4 48.9,-37.5 49.5,-39.9C47.3,-47.9 39.9,-53.1 31,-53.1C17.2,-53.1 4.8,-43 4.8,-25.1C4.8,-8.4 15,1.5 29.7,1.5Z"></path><path transform="translate(521 200)" d="M23.6,1.5C28.8,1.5 32.7,-0.3 35.5,-3.7L34,-5.4C31.3,-3.8 29.4,-2.9 26.4,-2.9C22,-2.9 19.6,-5.6 19.6,-11.8L19.6,-47.9L34,-47.9L34,-51.6L19.6,-51.6L20,-67.2L14.5,-67.2L11.7,-51.8L1.4,-50.9L1.4,-47.9L11.4,-47.9L11.4,-20.7C11.4,-17.1 11.3,-15 11.3,-11.8C11.3,-2.8 15.2,1.5 23.6,1.5Z"></path><path transform="translate(558 200)" d=""></path><path transform="translate(584 200)" d="M55.1,-54.8L59.3,-54.8L58.7,-72.8L5.3,-72.8L5.3,-69.8L15.6,-69C15.7,-59.1 15.7,-49.1 15.7,-39.1L15.7,-33.7C15.7,-23.6 15.7,-13.7 15.6,-3.9L5.3,-3L5.3,-0L36.1,-0L36.1,-3L24.7,-4C24.6,-13.7 24.6,-23.7 24.6,-35.3L42.4,-35.3L43.8,-24.6L47.3,-24.6L47.3,-49.1L43.8,-49.1L42.4,-38.6L24.6,-38.6C24.6,-49.5 24.6,-59.6 24.7,-69.3L52.3,-69.3L55.1,-54.8Z"></path><path transform="translate(642 200)" d="M29.7,1.5C43,1.5 54.7,-7.7 54.7,-25.8C54.7,-43.8 42.6,-53.1 29.7,-53.1C16.9,-53.1 4.8,-43.7 4.8,-25.8C4.8,-7.8 16.5,1.5 29.7,1.5ZM29.7,-1.6C19.8,-1.6 13.7,-10.1 13.7,-25.7C13.7,-41.3 19.8,-49.9 29.7,-49.9C39.6,-49.9 45.7,-41.3 45.7,-25.7C45.7,-10.1 39.6,-1.6 29.7,-1.6Z"></path><path transform="translate(702 200)" d="M12.4,-0L30.6,-0L30.6,-2.8L21.1,-3.8L20.9,-22.9L20.9,-32.2C23.9,-40.3 27.6,-45.1 32.9,-47.6L33.8,-46.7C36.1,-44.3 37.8,-42.9 40.4,-42.9C43.9,-42.9 45.5,-45.1 45.6,-48.6C44.6,-51.5 41.4,-53.1 37.6,-53.1C30.9,-53.1 24.2,-47.3 20.9,-38.2L20.3,-52L19,-52.8L3.6,-48.8L3.6,-46.2L12.4,-45.8C12.6,-40.8 12.7,-35.8 12.7,-28.9L12.7,-22.9L12.5,-3.7L4.1,-2.8L4.1,-0L12.4,-0Z"></path><path transform="translate(748 200)" d=""></path><path transform="translate(774 200)" d="M80.2,-69.8L90.4,-68.8L75.3,-11.4L58.3,-68.8L69.3,-69.8L69.3,-72.8L41.4,-72.8L41.4,-69.8L51.5,-68.9L34.5,-11.5L19.1,-68.9L29.4,-69.8L29.4,-72.8L1.2,-72.8L1.2,-69.8L10.1,-69L29.7,0.7L34.4,0.7L52.5,-60.4L70.9,0.7L75.6,0.7L94.6,-68.8L104.6,-69.8L104.6,-72.8L80.2,-72.8L80.2,-69.8Z"></path><path transform="translate(871 200)" d="M30.3,1.5C39.3,1.5 46,-2.6 50.4,-9.4L48.8,-10.8C44.7,-6 39.6,-3.5 32.5,-3.5C21.5,-3.5 13.7,-10.4 13.5,-26.3L49.5,-26.3C50,-27.9 50.2,-29.9 50.2,-32.3C50.2,-44.1 42.5,-53.1 29.5,-53.1C16.2,-53.1 4.8,-42.5 4.8,-25.7C4.8,-7.6 15.5,1.5 30.3,1.5ZM13.6,-29.4C14.3,-42.4 21,-49.9 29.3,-49.9C37.4,-49.9 42.2,-43.7 42.2,-35.2C42.2,-31.2 41.2,-29.4 37.7,-29.4L13.6,-29.4Z"></path><path transform="translate(925 200)" d="M37,1.5C50.1,1.5 59,-10 59,-26.3C59,-42.7 50.2,-53.1 38.1,-53.1C32.1,-53.1 25.9,-50.7 20.8,-44.9L20.8,-64.1L21.1,-79.6L19.6,-80.5L4,-77.5L4,-74.8L12.8,-74.3L12.8,-22.9C12.8,-17.4 12.7,-9.1 12.6,-3.5L4.2,-2.8L4.2,-0L19.8,0.9L20.8,-6.6C25.6,-0.8 31.4,1.5 37,1.5ZM21,-42C26.3,-47.1 30.5,-48.5 34.7,-48.5C43.7,-48.5 50.2,-41.2 50.2,-26.2C50.2,-9.4 42.8,-3.3 34.5,-3.3C29.7,-3.3 25.5,-5.1 21,-9.5L21,-42Z"></path></svg>