<svg  xmlns="http://www.w3.org/2000/svg" xmlns:xlink="http://www.w3.org/1999/xlink" width="1140" height="300" viewBox="0 0 1164 324"><path transform="translate(0 100)" d="M9,-0L9,-73L51,-73L51,-0L9,-0ZM14,-10.9L44,-68L14,-68L14,-10.9ZM16,-5L46,-5L46,-62.1L16,-5Z"></path><path transform="translate(60 100)" d="M9,-0L9,-73L51,-73L51,-0L9,-0ZM14,-10.9L44,-68L14,-68L14,-10.9ZM16,-5L46,-5L46,-62.1L16,-5Z"></path><path transform="translate(120 100)" d="M9,-0L9,-73L51,-73L51,-0L9,-0ZM14,-10.9L44,-68L14,-68L14,-10.9ZM16,-5L46,-5L46,-62.1L16,-5Z"></path><path transform="translate(180 100)" d="M9,-0L9,-73L51,-73L51,-0L9,-0ZM14,-10.9L44,-68L14,-68L14,-10.9ZM16,-5L46,-5L46,-62.1L16,-5Z"></path><path transform="translate(240 100)" d="M9,-0L9,-73L51,-73L51,-0L9,-0ZM14,-10.9L44,-68L14,-68L14,-10.9ZM16,-5L46,-5L46,-62.1L16,-5Z"></path><path transform="translate(300 100)" d="M9,-0L9,-73L51,-73L51,-0L9,-0ZM14,-10.9L44,-68L14,-68L14,-10.9ZM16,-5L46,-5L46,-62.1L16,-5Z"></path><path transform="translate(0 200)" d="M25.5,-0L25.5,-64.8L5.5,-64.8L5.5,-73L54.5,-73L54.5,-64.8L34.5,-64.8L34.5,-0L25.5,-0Z"></path><path transform="translate(60 200)" d="M9.2,-0L9.2,-73L18.2,-73L18.2,-44.5L18.3,-44.5Q19,-50 22.8,-53Q26.6,-56 32.9,-56Q41.2,-56 46.1,-50.9Q51,-45.8 51,-37L51,-0L42,-0L42,-35.5Q42,-41.7 38.85,-45.05Q35.7,-48.4 30.3,-48.4Q24.7,-48.4 21.45,-44.9Q18.2,-41.4 18.2,-35L18.2,-0L9.2,-0Z"></path><path transform="translate(120 200)" d="M30,1Q20.3,1 14.35,-4.85Q8.4,-10.7 8.4,-21L8.4,-34Q8.4,-44.3 14.35,-50.15Q20.3,-56 30,-56Q36.5,-56 41.35,-53.4Q46.2,-50.8 48.9,-46.1Q51.6,-41.4 51.6,-35L51.6,-25.2L17.2,-25.2L17.2,-20Q17.2,-13.9 20.7,-10.35Q24.2,-6.8 30,-6.8Q35,-6.8 38.25,-8.75Q41.5,-10.7 42.2,-14L51.2,-14Q50.3,-7.1 44.5,-3.05Q38.7,1 30,1ZM17.2,-32.2L42.8,-32.2L42.8,-35Q42.8,-41.5 39.45,-45.05Q36.1,-48.6 30,-48.6Q23.9,-48.6 20.55,-45.05Q17.2,-41.5 17.2,-35L17.2,-32.2Z"></path><path transform="translate(180 200)" d=""></path><path transform="translate(240 200)" d="M9.2,-0L9.2,-73L32.7,-73Q42.9,-73 48.95,-67.15Q55,-61.3 55,-51.5Q55,-41.7 48.95,-35.85Q42.9,-30 32.7,-30L18.2,-30L18.2,-0L9.2,-0ZM18.2,-38.1L32.7,-38.1Q38.6,-38.1 42.15,-41.75Q45.7,-45.4 45.7,-51.5Q45.7,-57.7 42.15,-61.3Q38.6,-64.9 32.7,-64.9L18.2,-64.9L18.2,-38.1Z"></path><path transform="translate(300 200)" d="M11.2,-0L11.2,-55L20.2,-55L20.2,-44.5L20.4,-44.5Q21.1,-49.8 24.9,-52.9Q28.7,-56 35.1,-56Q43.7,-56 48.35,-50.85Q53,-45.7 53,-36.2L53,-31.5L44,-31.5L44,-36.2Q44,-48.2 32.3,-48.2Q26.4,-48.2 23.3,-44.8Q20.2,-41.4 20.2,-35L20.2,-0L11.2,-0Z"></path><path transform="translate(360 200)" d="M30,0.8Q20.1,0.8 14.25,-5Q8.4,-10.8 8.4,-21.2L8.4,-33.8Q8.4,-44.3 14.2,-50.05Q20,-55.8 30,-55.8Q40,-55.8 45.8,-50.05Q51.6,-44.3 51.6,-33.8L51.6,-21.2Q51.6,-10.8 45.75,-5Q39.9,0.8 30,0.8ZM30,-7.2Q35.9,-7.2 39.25,-10.5Q42.6,-13.8 42.6,-20.2L42.6,-34.8Q42.6,-41.2 39.25,-44.5Q35.9,-47.8 30,-47.8Q24.2,-47.8 20.8,-44.5Q17.4,-41.2 17.4,-34.8L17.4,-20.2Q17.4,-13.8 20.8,-10.5Q24.2,-7.2 30,-7.2Z"></path><path transform="translate(420 200)" d="M9,18L9,9.8L21.4,9.8Q27.6,9.8 31.05,6.4Q34.5,3 34.5,-3.1L34.5,-46.8L8.5,-46.8L8.5,-55L43.5,-55L43.5,-3.1Q43.5,6.6 37.5,12.3Q31.5,18 21.4,18L9,18ZM38,-64.9Q34.7,-64.9 32.8,-66.6Q30.9,-68.3 30.9,-71.2Q30.9,-74.2 32.8,-75.95Q34.7,-77.7 38,-77.7Q41.3,-77.7 43.2,-75.95Q45.1,-74.2 45.1,-71.2Q45.1,-68.3 43.2,-66.6Q41.3,-64.9 38,-64.9Z"></path><path transform="translate(480 200)" d="M30,1Q20.3,1 14.35,-4.85Q8.4,-10.7 8.4,-21L8.4,-34Q8.4,-44.3 14.35,-50.15Q20.3,-56 30,-56Q36.5,-56 41.35,-53.4Q46.2,-50.8 48.9,-46.1Q51.6,-41.4 51.6,-35L51.6,-25.2L17.2,-25.2L17.2,-20Q17.2,-13.9 20.7,-10.35Q24.2,-6.8 30,-6.8Q35,-6.8 38.25,-8.75Q41.5,-10.7 42.2,-14L51.2,-14Q50.3,-7.1 44.5,-3.05Q38.7,1 30,1ZM17.2,-32.2L42.8,-32.2L42.8,-35Q42.8,-41.5 39.45,-45.05Q36.1,-48.6 30,-48.6Q23.9,-48.6 20.55,-45.05Q17.2,-41.5 17.2,-35L17.2,-32.2Z"></path><path transform="translate(540 200)" d="M30.8,1Q20.8,1 14.8,-4.6Q8.8,-10.2 8.8,-20L8.8,-35Q8.8,-44.8 14.8,-50.4Q20.8,-56 30.8,-56Q40.3,-56 46.15,-50.9Q52,-45.8 52.3,-37L43.3,-37Q43,-42.3 39.7,-45.15Q36.4,-48 30.8,-48Q24.9,-48 21.35,-44.65Q17.8,-41.3 17.8,-35.1L17.8,-20Q17.8,-13.8 21.35,-10.4Q24.9,-7 30.8,-7Q36.4,-7 39.7,-9.9Q43,-12.8 43.3,-18L52.3,-18Q52,-9.2 46.15,-4.1Q40.3,1 30.8,1Z"></path><path transform="translate(600 200)" d="M35.5,-0Q28.7,-0 24.6,-3.95Q20.5,-7.9 20.5,-14.5L20.5,-46.8L4.7,-46.8L4.7,-55L20.5,-55L20.5,-70.5L29.5,-70.5L29.5,-55L52,-55L52,-46.8L29.5,-46.8L29.5,-14.5Q29.5,-11.7 31.15,-9.95Q32.8,-8.2 35.5,-8.2L51.5,-8.2L51.5,-0L35.5,-0Z"></path><path transform="translate(660 200)" d=""></path><path transform="translate(720 200)" d="M9.5,-0L9.5,-73L52.5,-73L52.5,-64.8L18.3,-64.8L18.3,-40.6L49.9,-40.6L49.9,-32.4L18.5,-32.4L18.5,-0L9.5,-0Z"></path><path transform="translate(780 200)" d="M30,0.8Q20.1,0.8 14.25,-5Q8.4,-10.8 8.4,-21.2L8.4,-33.8Q8.4,-44.3 14.2,-50.05Q20,-55.8 30,-55.8Q40,-55.8 45.8,-50.05Q51.6,-44.3 51.6,-33.8L51.6,-21.2Q51.6,-10.8 45.75,-5Q39.9,0.8 30,0.8ZM30,-7.2Q35.9,-7.2 39.25,-10.5Q42.6,-13.8 42.6,-20.2L42.6,-34.8Q42.6,-41.2 39.25,-44.5Q35.9,-47.8 30,-47.8Q24.2,-47.8 20.8,-44.5Q17.4,-41.2 17.4,-34.8L17.4,-20.2Q17.4,-13.8 20.8,-10.5Q24.2,-7.2 30,-7.2Z"></path><path transform="translate(840 200)" d="M11.2,-0L11.2,-55L20.2,-55L20.2,-44.5L20.4,-44.5Q21.1,-49.8 24.9,-52.9Q28.7,-56 35.1,-56Q43.7,-56 48.35,-50.85Q53,-45.7 53,-36.2L53,-31.5L44,-31.5L44,-36.2Q44,-48.2 32.3,-48.2Q26.4,-48.2 23.3,-44.8Q20.2,-41.4 20.2,-35L20.2,-0L11.2,-0Z"></path><path transform="translate(900 200)" d=""></path><path transform="translate(960 200)" d="M10.7,-0L2,-73L10.3,-73L16,-19Q16.4,-15.7 16.6,-12.15Q16.8,-8.6 16.9,-6.5Q17.1,-8.6 17.45,-12.15Q17.8,-15.7 18.2,-19L25.4,-73L35.1,-73L41.7,-19Q42.1,-15.7 42.5,-12.15Q42.9,-8.6 43.1,-6.5Q43.3,-8.6 43.55,-12.15Q43.8,-15.7 44.2,-19L50.1,-73L58,-73L49.1,-0L37.8,-0L31.2,-55Q30.8,-58.4 30.6,-61.65Q30.4,-64.9 30.2,-66.7Q30,-64.9 29.8,-61.65Q29.6,-58.4 29.1,-55L22,-0L10.7,-0Z"></path><path transform="translate(1020 200)" d="M30,1Q20.3,1 14.35,-4.85Q8.4,-10.7 8.4,-21L8.4,-34Q8.4,-44.3 14.35,-50.15Q20.3,-56 30,-56Q36.5,-56 41.35,-53.4Q46.2,-50.8 48.9,-46.1Q51.6,-41.4 51.6,-35L51.6,-25.2L17.2,-25.2L17.2,-20Q17.2,-13.9 20.7,-10.35Q24.2,-6.8 30,-6.8Q35,-6.8 38.25,-8.75Q41.5,-10.7 42.2,-14L51.2,-14Q50.3,-7.1 44.5,-3.05Q38.7,1 30,1ZM17.2,-32.2L42.8,-32.2L42.8,-35Q42.8,-41.5 39.45,-45.05Q36.1,-48.6 30,-48.6Q23.9,-48.6 20.55,-45.05Q17.2,-41.5 17.2,-35L17.2,-32.2Z"></path><path transform="translate(1080 200)" d="M33.2,1Q27,1 23,-2.05Q19,-5.1 18.3,-10.5L18.2,-10.5L18.2,-0L9.2,-0L9.2,-73L18.2,-73L18.2,-57L18,-44.5L18.1,-44.5Q18.9,-49.8 22.95,-52.9Q27,-56 33.2,-56Q41.5,-56 46.4,-50.5Q51.3,-45 51.3,-35.5L51.3,-19.4Q51.3,-10 46.4,-4.5Q41.5,1 33.2,1ZM30.2,-6.8Q35.9,-6.8 39.1,-9.8Q42.3,-12.8 42.3,-19.5L42.3,-35.5Q42.3,-42.3 39.1,-45.25Q35.9,-48.2 30.2,-48.2Q24.7,-48.2 21.45,-44.7Q18.2,-41.2 18.2,-35L18.2,-20Q18.2,-13.8 21.45,-10.3Q24.7,-6.8 30.2,-6.8Z"></path></svg>